<?xml version="1.0" encoding="UTF-8" standalone="no"?>
<!DOCTYPE svg PUBLIC "-//W3C//DTD SVG 1.1//EN"
 "http://www.w3.org/Graphics/SVG/1.1/DTD/svg11.dtd">
<!-- Generated by graphviz version 2.40.1 (20161225.0304)
 -->
<!-- Pages: 1 -->
<svg width="1265pt" height="479pt"
 viewBox="0.00 0.00 1264.50 479.00" xmlns="http://www.w3.org/2000/svg" xmlns:xlink="http://www.w3.org/1999/xlink">
<g id="graph0" class="graph" transform="scale(1 1) rotate(0) translate(4 475)">
<polygon fill="#ffffff" stroke="transparent" points="-4,4 -4,-475 1260.5,-475 1260.5,4 -4,4"/>
<!-- fdff::b/128 -->
<g id="node1" class="node">
<title>fdff::b/128</title>
<polygon fill="#00ffff" stroke="#000000" points="136.5,-471 61.5,-471 61.5,-435 136.5,-435 136.5,-471"/>
<text text-anchor="middle" x="99" y="-449.3" font-family="Times,serif" font-size="14.00" fill="#000000">fdff::b/128</text>
</g>
<!-- 0.0.0.11 -->
<g id="node2" class="node">
<title>0.0.0.11</title>
<ellipse fill="#ff0000" stroke="#000000" cx="132" cy="-366" rx="40.0939" ry="18"/>
<text text-anchor="middle" x="132" y="-362.3" font-family="Times,serif" font-size="14.00" fill="#000000">0.0.0.11</text>
</g>
<!-- fdff::b/128&#45;&#45;0.0.0.11 -->
<g id="edge1" class="edge">
<title>fdff::b/128&#45;&#45;0.0.0.11</title>
<path fill="none" stroke="#000000" d="M102.987,-434.7491C105.3956,-424.8832 108.8112,-412.5867 113,-402 115.4441,-395.8229 118.655,-389.3284 121.7401,-383.5823"/>
</g>
<!-- 0.0.0.10 -->
<g id="node12" class="node">
<title>0.0.0.10</title>
<ellipse fill="#ff0000" stroke="#000000" cx="179" cy="-279" rx="40.0939" ry="18"/>
<text text-anchor="middle" x="179" y="-275.3" font-family="Times,serif" font-size="14.00" fill="#000000">0.0.0.10</text>
</g>
<!-- 0.0.0.11&#45;&#45;0.0.0.10 -->
<g id="edge27" class="edge">
<title>0.0.0.11&#45;&#45;0.0.0.10</title>
<path fill="none" stroke="#000000" d="M128.6548,-347.6252C127.6944,-337.4934 128.0145,-324.9827 133,-315 137.4403,-306.1089 145.2221,-298.7494 153.1364,-293.0519"/>
<text text-anchor="middle" x="172.5" y="-318.8" font-family="Times,serif" font-size="14.00" fill="#000000">fdf0:0:0:d::/64</text>
</g>
<!-- fdff::3/128 -->
<g id="node3" class="node">
<title>fdff::3/128</title>
<polygon fill="#00ffff" stroke="#000000" points="1256.5,-123 1181.5,-123 1181.5,-87 1256.5,-87 1256.5,-123"/>
<text text-anchor="middle" x="1219" y="-101.3" font-family="Times,serif" font-size="14.00" fill="#000000">fdff::3/128</text>
</g>
<!-- 0.0.0.3 -->
<g id="node4" class="node">
<title>0.0.0.3</title>
<ellipse fill="#ff0000" stroke="#000000" cx="1153" cy="-18" rx="35.9954" ry="18"/>
<text text-anchor="middle" x="1153" y="-14.3" font-family="Times,serif" font-size="14.00" fill="#000000">0.0.0.3</text>
</g>
<!-- fdff::3/128&#45;&#45;0.0.0.3 -->
<g id="edge2" class="edge">
<title>fdff::3/128&#45;&#45;0.0.0.3</title>
<path fill="none" stroke="#000000" d="M1205.3248,-86.9735C1193.6955,-71.644 1177.1225,-49.7979 1165.7621,-34.8228"/>
</g>
<!-- fdff::5/128 -->
<g id="node5" class="node">
<title>fdff::5/128</title>
<polygon fill="#00ffff" stroke="#000000" points="501.5,-384 426.5,-384 426.5,-348 501.5,-348 501.5,-384"/>
<text text-anchor="middle" x="464" y="-362.3" font-family="Times,serif" font-size="14.00" fill="#000000">fdff::5/128</text>
</g>
<!-- 0.0.0.5 -->
<g id="node6" class="node">
<title>0.0.0.5</title>
<ellipse fill="#ff0000" stroke="#000000" cx="455" cy="-279" rx="35.9954" ry="18"/>
<text text-anchor="middle" x="455" y="-275.3" font-family="Times,serif" font-size="14.00" fill="#000000">0.0.0.5</text>
</g>
<!-- fdff::5/128&#45;&#45;0.0.0.5 -->
<g id="edge3" class="edge">
<title>fdff::5/128&#45;&#45;0.0.0.5</title>
<path fill="none" stroke="#000000" d="M466.3415,-347.9727C467.2047,-338.1722 467.6232,-325.867 466,-315 465.0925,-308.9243 463.3683,-302.4566 461.5496,-296.7041"/>
</g>
<!-- 0.0.0.7 -->
<g id="node17" class="node">
<title>0.0.0.7</title>
<ellipse fill="#ff0000" stroke="#000000" cx="563" cy="-192" rx="35.9954" ry="18"/>
<text text-anchor="middle" x="563" y="-188.3" font-family="Times,serif" font-size="14.00" fill="#000000">0.0.0.7</text>
</g>
<!-- 0.0.0.5&#45;&#45;0.0.0.7 -->
<g id="edge19" class="edge">
<title>0.0.0.5&#45;&#45;0.0.0.7</title>
<path fill="none" stroke="#000000" d="M441.47,-262.1355C434.7102,-251.5472 429.4233,-238.0447 437,-228 448.0629,-213.3336 495.3134,-202.8447 528.6902,-197.0994"/>
<text text-anchor="middle" x="476.5" y="-231.8" font-family="Times,serif" font-size="14.00" fill="#000000">fdf0:0:0:9::/64</text>
</g>
<!-- fdff::1/128 -->
<g id="node7" class="node">
<title>fdff::1/128</title>
<polygon fill="#00ffff" stroke="#000000" points="929.5,-384 854.5,-384 854.5,-348 929.5,-348 929.5,-384"/>
<text text-anchor="middle" x="892" y="-362.3" font-family="Times,serif" font-size="14.00" fill="#000000">fdff::1/128</text>
</g>
<!-- 0.0.0.1 -->
<g id="node8" class="node">
<title>0.0.0.1</title>
<ellipse fill="#ff0000" stroke="#000000" cx="851" cy="-279" rx="35.9954" ry="18"/>
<text text-anchor="middle" x="851" y="-275.3" font-family="Times,serif" font-size="14.00" fill="#000000">0.0.0.1</text>
</g>
<!-- fdff::1/128&#45;&#45;0.0.0.1 -->
<g id="edge4" class="edge">
<title>fdff::1/128&#45;&#45;0.0.0.1</title>
<path fill="none" stroke="#000000" d="M923.5577,-347.8657C935.6086,-338.5407 944.7848,-326.6981 937,-315 925.522,-297.7521 904.022,-288.7521 885.3915,-284.0641"/>
</g>
<!-- fdff::c/128 -->
<g id="node9" class="node">
<title>fdff::c/128</title>
<polygon fill="#00ffff" stroke="#000000" points="1022,-384 948,-384 948,-348 1022,-348 1022,-384"/>
<text text-anchor="middle" x="985" y="-362.3" font-family="Times,serif" font-size="14.00" fill="#000000">fdff::c/128</text>
</g>
<!-- 0.0.0.12 -->
<g id="node10" class="node">
<title>0.0.0.12</title>
<ellipse fill="#ff0000" stroke="#000000" cx="976" cy="-279" rx="40.0939" ry="18"/>
<text text-anchor="middle" x="976" y="-275.3" font-family="Times,serif" font-size="14.00" fill="#000000">0.0.0.12</text>
</g>
<!-- fdff::c/128&#45;&#45;0.0.0.12 -->
<g id="edge5" class="edge">
<title>fdff::c/128&#45;&#45;0.0.0.12</title>
<path fill="none" stroke="#000000" d="M983.1352,-347.9735C981.5906,-333.0422 979.4064,-311.9283 977.8624,-297.0034"/>
</g>
<!-- fdff::a/128 -->
<g id="node11" class="node">
<title>fdff::a/128</title>
<polygon fill="#00ffff" stroke="#000000" points="74,-384 0,-384 0,-348 74,-348 74,-384"/>
<text text-anchor="middle" x="37" y="-362.3" font-family="Times,serif" font-size="14.00" fill="#000000">fdff::a/128</text>
</g>
<!-- fdff::a/128&#45;&#45;0.0.0.10 -->
<g id="edge6" class="edge">
<title>fdff::a/128&#45;&#45;0.0.0.10</title>
<path fill="none" stroke="#000000" d="M66.4225,-347.9735C92.7429,-331.8477 130.8334,-308.5105 155.2574,-293.5465"/>
</g>
<!-- 0.0.0.2 -->
<g id="node13" class="node">
<title>0.0.0.2</title>
<ellipse fill="#ff0000" stroke="#000000" cx="753" cy="-366" rx="35.9954" ry="18"/>
<text text-anchor="middle" x="753" y="-362.3" font-family="Times,serif" font-size="14.00" fill="#000000">0.0.0.2</text>
</g>
<!-- 0.0.0.2&#45;&#45;0.0.0.5 -->
<g id="edge7" class="edge">
<title>0.0.0.2&#45;&#45;0.0.0.5</title>
<path fill="none" stroke="#000000" d="M720.3389,-358.6079C695.9424,-352.4975 662.1048,-342.7598 634,-330 622.5465,-324.8 621.6177,-319.8218 610,-315 588.3755,-306.0249 527.4363,-293.1528 488.7236,-285.4788"/>
<text text-anchor="middle" x="673.5" y="-318.8" font-family="Times,serif" font-size="14.00" fill="#000000">fdf0:0:0:1::/64</text>
</g>
<!-- 0.0.0.2&#45;&#45;0.0.0.1 -->
<g id="edge9" class="edge">
<title>0.0.0.2&#45;&#45;0.0.0.1</title>
<path fill="none" stroke="#000000" d="M761.9531,-348.4167C767.9816,-337.8108 776.6992,-324.5499 787,-315 797.6575,-305.1193 811.5146,-296.8997 823.6082,-290.8212"/>
<text text-anchor="middle" x="811" y="-318.8" font-family="Times,serif" font-size="14.00" fill="#000000">fdf0::/64</text>
</g>
<!-- 0.0.0.2&#45;&#45;0.0.0.12 -->
<g id="edge10" class="edge">
<title>0.0.0.2&#45;&#45;0.0.0.12</title>
<path fill="none" stroke="#000000" d="M781.6968,-354.8044C823.9275,-338.3287 902.4639,-307.689 945.6305,-290.8482"/>
<text text-anchor="middle" x="916.5" y="-318.8" font-family="Times,serif" font-size="14.00" fill="#000000">fdf0:0:0:3::/64</text>
</g>
<!-- 0.0.0.6 -->
<g id="node14" class="node">
<title>0.0.0.6</title>
<ellipse fill="#ff0000" stroke="#000000" cx="755" cy="-105" rx="35.9954" ry="18"/>
<text text-anchor="middle" x="755" y="-101.3" font-family="Times,serif" font-size="14.00" fill="#000000">0.0.0.6</text>
</g>
<!-- 0.0.0.2&#45;&#45;0.0.0.6 -->
<g id="edge8" class="edge">
<title>0.0.0.2&#45;&#45;0.0.0.6</title>
<path fill="none" stroke="#000000" d="M753.1406,-347.647C753.5079,-299.7252 754.4925,-171.2318 754.8595,-123.3327"/>
<text text-anchor="middle" x="793.5" y="-231.8" font-family="Times,serif" font-size="14.00" fill="#000000">fdf0:0:0:2::/64</text>
</g>
<!-- fdff::2/128 -->
<g id="node15" class="node">
<title>fdff::2/128</title>
<polygon fill="#00ffff" stroke="#000000" points="726.5,-297 651.5,-297 651.5,-261 726.5,-261 726.5,-297"/>
<text text-anchor="middle" x="689" y="-275.3" font-family="Times,serif" font-size="14.00" fill="#000000">fdff::2/128</text>
</g>
<!-- 0.0.0.2&#45;&#45;fdff::2/128 -->
<g id="edge11" class="edge">
<title>0.0.0.2&#45;&#45;fdff::2/128</title>
<path fill="none" stroke="#000000" d="M740.3557,-348.8116C729.3542,-333.8564 713.4635,-312.2551 702.2791,-297.0512"/>
</g>
<!-- 0.0.0.6&#45;&#45;0.0.0.3 -->
<g id="edge25" class="edge">
<title>0.0.0.6&#45;&#45;0.0.0.3</title>
<path fill="none" stroke="#000000" d="M787.9086,-97.8064C862.7778,-81.4405 1045.147,-41.5759 1120.0529,-25.202"/>
<text text-anchor="middle" x="1016.5" y="-57.8" font-family="Times,serif" font-size="14.00" fill="#000000">fdf0:0:0:4::/64</text>
</g>
<!-- fdff::6/128 -->
<g id="node24" class="node">
<title>fdff::6/128</title>
<polygon fill="#00ffff" stroke="#000000" points="792.5,-36 717.5,-36 717.5,0 792.5,0 792.5,-36"/>
<text text-anchor="middle" x="755" y="-14.3" font-family="Times,serif" font-size="14.00" fill="#000000">fdff::6/128</text>
</g>
<!-- 0.0.0.6&#45;&#45;fdff::6/128 -->
<g id="edge26" class="edge">
<title>0.0.0.6&#45;&#45;fdff::6/128</title>
<path fill="none" stroke="#000000" d="M755,-86.9735C755,-72.0422 755,-50.9283 755,-36.0034"/>
</g>
<!-- fdff::7/128 -->
<g id="node16" class="node">
<title>fdff::7/128</title>
<polygon fill="#00ffff" stroke="#000000" points="633.5,-297 558.5,-297 558.5,-261 633.5,-261 633.5,-297"/>
<text text-anchor="middle" x="596" y="-275.3" font-family="Times,serif" font-size="14.00" fill="#000000">fdff::7/128</text>
</g>
<!-- fdff::7/128&#45;&#45;0.0.0.7 -->
<g id="edge12" class="edge">
<title>fdff::7/128&#45;&#45;0.0.0.7</title>
<path fill="none" stroke="#000000" d="M589.1624,-260.9735C583.461,-245.9427 575.3832,-224.6465 569.716,-209.7057"/>
</g>
<!-- 0.0.0.7&#45;&#45;0.0.0.6 -->
<g id="edge24" class="edge">
<title>0.0.0.7&#45;&#45;0.0.0.6</title>
<path fill="none" stroke="#000000" d="M587.4614,-178.4744C607.283,-167.7404 636.0782,-152.6542 662,-141 683.0017,-131.5578 707.2832,-122.2098 725.768,-115.4066"/>
<text text-anchor="middle" x="701.5" y="-144.8" font-family="Times,serif" font-size="14.00" fill="#000000">fdf0:0:0:b::/64</text>
</g>
<!-- 0.0.0.9 -->
<g id="node18" class="node">
<title>0.0.0.9</title>
<ellipse fill="#ff0000" stroke="#000000" cx="1094" cy="-366" rx="35.9954" ry="18"/>
<text text-anchor="middle" x="1094" y="-362.3" font-family="Times,serif" font-size="14.00" fill="#000000">0.0.0.9</text>
</g>
<!-- 0.0.0.9&#45;&#45;0.0.0.3 -->
<g id="edge13" class="edge">
<title>0.0.0.9&#45;&#45;0.0.0.3</title>
<path fill="none" stroke="#000000" d="M1112.9927,-350.4918C1130.2403,-334.5505 1153,-308.0172 1153,-279 1153,-279 1153,-279 1153,-105 1153,-81.2865 1153,-53.9371 1153,-36.3306"/>
<text text-anchor="middle" x="1192.5" y="-188.3" font-family="Times,serif" font-size="14.00" fill="#000000">fdf0:0:0:5::/64</text>
</g>
<!-- 0.0.0.9&#45;&#45;0.0.0.12 -->
<g id="edge15" class="edge">
<title>0.0.0.9&#45;&#45;0.0.0.12</title>
<path fill="none" stroke="#000000" d="M1061.5798,-357.9459C1043.9597,-352.332 1022.6397,-343.4016 1007,-330 996.6142,-321.1004 988.6968,-307.8192 983.4636,-297.0411"/>
<text text-anchor="middle" x="1046.5" y="-318.8" font-family="Times,serif" font-size="14.00" fill="#000000">fdf0:0:0:e::/64</text>
</g>
<!-- fdff::9/128 -->
<g id="node19" class="node">
<title>fdff::9/128</title>
<polygon fill="#00ffff" stroke="#000000" points="1124.5,-297 1049.5,-297 1049.5,-261 1124.5,-261 1124.5,-297"/>
<text text-anchor="middle" x="1087" y="-275.3" font-family="Times,serif" font-size="14.00" fill="#000000">fdff::9/128</text>
</g>
<!-- 0.0.0.9&#45;&#45;fdff::9/128 -->
<g id="edge14" class="edge">
<title>0.0.0.9&#45;&#45;fdff::9/128</title>
<path fill="none" stroke="#000000" d="M1092.5496,-347.9735C1091.3482,-333.0422 1089.6494,-311.9283 1088.4485,-297.0034"/>
</g>
<!-- 0.0.0.8 -->
<g id="node20" class="node">
<title>0.0.0.8</title>
<ellipse fill="#ff0000" stroke="#000000" cx="359" cy="-366" rx="35.9954" ry="18"/>
<text text-anchor="middle" x="359" y="-362.3" font-family="Times,serif" font-size="14.00" fill="#000000">0.0.0.8</text>
</g>
<!-- 0.0.0.8&#45;&#45;0.0.0.5 -->
<g id="edge16" class="edge">
<title>0.0.0.8&#45;&#45;0.0.0.5</title>
<path fill="none" stroke="#000000" d="M364.2598,-347.7122C368.0623,-337.111 374.1124,-324.1017 383,-315 394.5213,-303.2011 410.7187,-294.6307 424.8337,-288.8192"/>
<text text-anchor="middle" x="422.5" y="-318.8" font-family="Times,serif" font-size="14.00" fill="#000000">fdf0:0:0:a::/64</text>
</g>
<!-- 0.0.0.8&#45;&#45;0.0.0.10 -->
<g id="edge18" class="edge">
<title>0.0.0.8&#45;&#45;0.0.0.10</title>
<path fill="none" stroke="#000000" d="M330.4069,-354.8716C313.5205,-348.092 291.8304,-339.0213 273,-330 249.0557,-318.5287 222.5312,-303.9596 203.7802,-293.3329"/>
<text text-anchor="middle" x="312.5" y="-318.8" font-family="Times,serif" font-size="14.00" fill="#000000">fdf0:0:0:c::/64</text>
</g>
<!-- fdff::8/128 -->
<g id="node21" class="node">
<title>fdff::8/128</title>
<polygon fill="#00ffff" stroke="#000000" points="390.5,-297 315.5,-297 315.5,-261 390.5,-261 390.5,-297"/>
<text text-anchor="middle" x="353" y="-275.3" font-family="Times,serif" font-size="14.00" fill="#000000">fdff::8/128</text>
</g>
<!-- 0.0.0.8&#45;&#45;fdff::8/128 -->
<g id="edge17" class="edge">
<title>0.0.0.8&#45;&#45;fdff::8/128</title>
<path fill="none" stroke="#000000" d="M357.7568,-347.9735C356.727,-333.0422 355.2709,-311.9283 354.2416,-297.0034"/>
</g>
<!-- 0.0.0.4 -->
<g id="node22" class="node">
<title>0.0.0.4</title>
<ellipse fill="#ff0000" stroke="#000000" cx="378" cy="-453" rx="35.9954" ry="18"/>
<text text-anchor="middle" x="378" y="-449.3" font-family="Times,serif" font-size="14.00" fill="#000000">0.0.0.4</text>
</g>
<!-- 0.0.0.4&#45;&#45;0.0.0.11 -->
<g id="edge22" class="edge">
<title>0.0.0.4&#45;&#45;0.0.0.11</title>
<path fill="none" stroke="#000000" d="M342.5288,-450.2988C277.9748,-445.0243 146.6597,-432.5036 133,-417 125.2722,-408.229 125.2478,-394.9437 127.0373,-384.1315"/>
<text text-anchor="middle" x="172.5" y="-405.8" font-family="Times,serif" font-size="14.00" fill="#000000">fdf0:0:0:8::/64</text>
</g>
<!-- 0.0.0.4&#45;&#45;0.0.0.10 -->
<g id="edge23" class="edge">
<title>0.0.0.4&#45;&#45;0.0.0.10</title>
<path fill="none" stroke="#000000" d="M345.6481,-445.3124C313.3158,-436.022 264.3134,-417.3217 235,-384 213.6488,-359.7293 228.3932,-342.8604 212,-315 207.8723,-307.9849 202.1997,-301.1686 196.7214,-295.3885"/>
<text text-anchor="middle" x="274.5" y="-362.3" font-family="Times,serif" font-size="14.00" fill="#000000">fdf0:0:0:7::/64</text>
</g>
<!-- 0.0.0.4&#45;&#45;0.0.0.7 -->
<g id="edge20" class="edge">
<title>0.0.0.4&#45;&#45;0.0.0.7</title>
<path fill="none" stroke="#000000" d="M409.8461,-444.6289C440.1267,-435.0108 484.6979,-416.2438 510,-384 529.4977,-359.1531 518.7844,-345.4965 527,-315 537.1285,-277.4029 550.2322,-233.7301 557.5105,-209.8574"/>
<text text-anchor="middle" x="566.5" y="-318.8" font-family="Times,serif" font-size="14.00" fill="#000000">fdf0:0:0:6::/64</text>
</g>
<!-- fdff::4/128 -->
<g id="node23" class="node">
<title>fdff::4/128</title>
<polygon fill="#00ffff" stroke="#000000" points="1222.5,-384 1147.5,-384 1147.5,-348 1222.5,-348 1222.5,-384"/>
<text text-anchor="middle" x="1185" y="-362.3" font-family="Times,serif" font-size="14.00" fill="#000000">fdff::4/128</text>
</g>
<!-- 0.0.0.4&#45;&#45;fdff::4/128 -->
<g id="edge21" class="edge">
<title>0.0.0.4&#45;&#45;fdff::4/128</title>
<path fill="none" stroke="#000000" d="M413.5717,-451.11C544.3343,-443.955 998.1034,-417.2435 1139,-384 1141.7544,-383.3501 1144.563,-382.5687 1147.3661,-381.7004"/>
</g>
</g>
</svg>
