<?xml version="1.0" encoding="UTF-8" standalone="no"?>
<!DOCTYPE svg PUBLIC "-//W3C//DTD SVG 1.1//EN"
 "http://www.w3.org/Graphics/SVG/1.1/DTD/svg11.dtd">
<!-- Generated by graphviz version 2.40.1 (20161225.0304)
 -->
<!-- Pages: 1 -->
<svg width="243pt" height="291pt"
 viewBox="0.00 0.00 242.50 291.00" xmlns="http://www.w3.org/2000/svg" xmlns:xlink="http://www.w3.org/1999/xlink">
<g id="graph0" class="graph" transform="scale(1 1) rotate(0) translate(4 287)">
<polygon fill="#ffffff" stroke="transparent" points="-4,4 -4,-287 238.5,-287 238.5,4 -4,4"/>
<!-- fdff::3/128 -->
<g id="node1" class="node">
<title>fdff::3/128</title>
<polygon fill="#00ffff" stroke="#000000" points="75,-210 0,-210 0,-174 75,-174 75,-210"/>
<text text-anchor="middle" x="37.5" y="-188.3" font-family="Times,serif" font-size="14.00" fill="#000000">fdff::3/128</text>
</g>
<!-- 0.0.0.3 -->
<g id="node2" class="node">
<title>0.0.0.3</title>
<ellipse fill="#ff0000" stroke="#000000" cx="37.5" cy="-105" rx="35.9954" ry="18"/>
<text text-anchor="middle" x="37.5" y="-101.3" font-family="Times,serif" font-size="14.00" fill="#000000">0.0.0.3</text>
</g>
<!-- fdff::3/128&#45;&#45;0.0.0.3 -->
<g id="edge1" class="edge">
<title>fdff::3/128&#45;&#45;0.0.0.3</title>
<path fill="none" stroke="#000000" d="M37.5,-173.9735C37.5,-159.0422 37.5,-137.9283 37.5,-123.0034"/>
</g>
<!-- 0.0.0.2 -->
<g id="node4" class="node">
<title>0.0.0.2</title>
<ellipse fill="#ff0000" stroke="#000000" cx="130.5" cy="-18" rx="35.9954" ry="18"/>
<text text-anchor="middle" x="130.5" y="-14.3" font-family="Times,serif" font-size="14.00" fill="#000000">0.0.0.2</text>
</g>
<!-- 0.0.0.3&#45;&#45;0.0.0.2 -->
<g id="edge6" class="edge">
<title>0.0.0.3&#45;&#45;0.0.0.2</title>
<path fill="none" stroke="#000000" d="M36.6177,-86.7542C37.0317,-76.1679 39.2391,-63.1594 46.5,-54 58.8203,-38.4582 79.1363,-29.5109 96.7022,-24.4236"/>
<text text-anchor="middle" x="86" y="-57.8" font-family="Times,serif" font-size="14.00" fill="#000000">fdf0:0:0:2::/64</text>
</g>
<!-- fdff::2/128 -->
<g id="node3" class="node">
<title>fdff::2/128</title>
<polygon fill="#00ffff" stroke="#000000" points="167,-123 92,-123 92,-87 167,-87 167,-123"/>
<text text-anchor="middle" x="129.5" y="-101.3" font-family="Times,serif" font-size="14.00" fill="#000000">fdff::2/128</text>
</g>
<!-- fdff::2/128&#45;&#45;0.0.0.2 -->
<g id="edge2" class="edge">
<title>fdff::2/128&#45;&#45;0.0.0.2</title>
<path fill="none" stroke="#000000" d="M129.7072,-86.9735C129.8788,-72.0422 130.1215,-50.9283 130.2931,-36.0034"/>
</g>
<!-- fdff::1/128 -->
<g id="node5" class="node">
<title>fdff::1/128</title>
<polygon fill="#00ffff" stroke="#000000" points="203,-283 128,-283 128,-247 203,-247 203,-283"/>
<text text-anchor="middle" x="165.5" y="-261.3" font-family="Times,serif" font-size="14.00" fill="#000000">fdff::1/128</text>
</g>
<!-- 0.0.0.1 -->
<g id="node6" class="node">
<title>0.0.0.1</title>
<ellipse fill="#ff0000" stroke="#000000" cx="165.5" cy="-192" rx="35.9954" ry="18"/>
<text text-anchor="middle" x="165.5" y="-188.3" font-family="Times,serif" font-size="14.00" fill="#000000">0.0.0.1</text>
</g>
<!-- fdff::1/128&#45;&#45;0.0.0.1 -->
<g id="edge3" class="edge">
<title>fdff::1/128&#45;&#45;0.0.0.1</title>
<path fill="none" stroke="#000000" d="M165.5,-246.9551C165.5,-235.7241 165.5,-221.3298 165.5,-210.0904"/>
</g>
<!-- 0.0.0.1&#45;&#45;0.0.0.3 -->
<g id="edge4" class="edge">
<title>0.0.0.1&#45;&#45;0.0.0.3</title>
<path fill="none" stroke="#000000" d="M143.4533,-177.7864C133.3618,-171.2249 121.2764,-163.2888 110.5,-156 92.8277,-144.0471 72.9954,-130.1609 58.4672,-119.8991"/>
<text text-anchor="middle" x="150" y="-144.8" font-family="Times,serif" font-size="14.00" fill="#000000">fdf0:0:0:1::/64</text>
</g>
<!-- 0.0.0.1&#45;&#45;0.0.0.2 -->
<g id="edge5" class="edge">
<title>0.0.0.1&#45;&#45;0.0.0.2</title>
<path fill="none" stroke="#000000" d="M179.7107,-175.1154C183.6745,-169.4067 187.4539,-162.7579 189.5,-156 191.4319,-149.6194 190.2857,-147.6202 189.5,-141 186.5908,-116.4863 186.388,-109.6188 176.5,-87 168.138,-67.872 154.4911,-48.2761 144.2287,-34.879"/>
<text text-anchor="middle" x="210.5" y="-101.3" font-family="Times,serif" font-size="14.00" fill="#000000">fdf0::/64</text>
</g>
</g>
</svg>
